<svg width="145" height="22" viewBox="0 0 145 22" fill="none" xmlns="http://www.w3.org/2000/svg">
<path d="M7.02415 3.44777C7.02415 5.35234 5.45217 6.89556 3.51208 6.89556C1.57198 6.89556 0 5.35234 0 3.44777C0 1.54319 1.57198 0 3.51208 0C5.45217 0 7.02415 1.54319 7.02415 3.44777Z" fill="#EBB105"/>
<path d="M20.824 3.44777C20.824 5.35234 19.252 6.89556 17.3119 6.89556C15.3718 6.89556 13.7998 5.35234 13.7998 3.44777C13.7998 1.54319 15.3718 0 17.3119 0C19.252 0 20.824 1.54319 20.824 3.44777Z" fill="#EBB105"/>
<path d="M34.613 3.44777C34.613 5.35234 33.0411 6.89556 31.101 6.89556C29.1609 6.89556 27.5889 5.35234 27.5889 3.44777C27.5889 1.54319 29.1609 0 31.101 0C33.0411 0 34.613 1.54319 34.613 3.44777Z" fill="#EBB105"/>
<path d="M48.4128 3.44777C48.4128 5.35234 46.8408 6.89556 44.9007 6.89556C42.9606 6.89556 41.3887 5.35234 41.3887 3.44777C41.3887 1.54319 42.9606 0 44.9007 0C46.8408 0 48.4128 1.54319 48.4128 3.44777Z" fill="#EBB105"/>
<path d="M62.2126 3.44777C62.2126 5.35234 60.6407 6.89556 58.7006 6.89556C56.7605 6.89556 55.1885 5.35234 55.1885 3.44777C55.1885 1.54319 56.7605 0 58.7006 0C60.6407 0 62.2126 1.54319 62.2126 3.44777Z" fill="#EBB105"/>
<path d="M76.0124 3.44777C76.0124 5.35234 74.4405 6.89556 72.5004 6.89556C70.5603 6.89556 68.9883 5.35234 68.9883 3.44777C68.9883 1.54319 70.5603 0 72.5004 0C74.4405 0 76.0124 1.54319 76.0124 3.44777Z" fill="#EBB105"/>
<path d="M89.8113 3.44777C89.8113 5.35234 88.2393 6.89556 86.2992 6.89556C84.3591 6.89556 82.7871 5.35234 82.7871 3.44777C82.7871 1.54319 84.3591 0 86.2992 0C88.2393 0 89.8113 1.54319 89.8113 3.44777Z" fill="#EBB105"/>
<path d="M103.611 3.44777C103.611 5.35234 102.039 6.89556 100.099 6.89556C98.1589 6.89556 96.5869 5.35234 96.5869 3.44777C96.5869 1.54319 98.1589 0 100.099 0C102.039 0 103.611 1.54319 103.611 3.44777Z" fill="#EBB105"/>
<path d="M117.411 3.44777C117.411 5.35234 115.839 6.89556 113.899 6.89556C111.959 6.89556 110.387 5.35234 110.387 3.44777C110.387 1.54319 111.959 0 113.899 0C115.839 0 117.411 1.54319 117.411 3.44777Z" fill="#EBB105"/>
<path d="M131.201 3.44777C131.201 5.35234 129.629 6.89556 127.689 6.89556C125.749 6.89556 124.177 5.35234 124.177 3.44777C124.177 1.54319 125.749 0 127.689 0C129.629 0 131.201 1.54319 131.201 3.44777Z" fill="#EBB105"/>
<path d="M145 3.44777C145 5.35234 143.428 6.89556 141.488 6.89556C139.548 6.89556 137.976 5.35234 137.976 3.44777C137.976 1.54319 139.548 0 141.488 0C143.428 0 145 1.54319 145 3.44777Z" fill="#EBB105"/>
<path d="M7.02415 18.3433C7.02415 20.2478 5.45217 21.791 3.51208 21.791C1.57198 21.791 0 20.2478 0 18.3433C0 16.4387 1.57198 14.8955 3.51208 14.8955C5.45217 14.8955 7.02415 16.4387 7.02415 18.3433Z" fill="#EBB105"/>
<path d="M20.824 18.3433C20.824 20.2478 19.252 21.791 17.3119 21.791C15.3718 21.791 13.7998 20.2478 13.7998 18.3433C13.7998 16.4387 15.3718 14.8955 17.3119 14.8955C19.252 14.8955 20.824 16.4387 20.824 18.3433Z" fill="#EBB105"/>
<path d="M34.613 18.3433C34.613 20.2478 33.0411 21.791 31.101 21.791C29.1609 21.791 27.5889 20.2478 27.5889 18.3433C27.5889 16.4387 29.1609 14.8955 31.101 14.8955C33.0411 14.8955 34.613 16.4387 34.613 18.3433Z" fill="#EBB105"/>
<path d="M48.4128 18.3433C48.4128 20.2478 46.8408 21.791 44.9007 21.791C42.9606 21.791 41.3887 20.2478 41.3887 18.3433C41.3887 16.4387 42.9606 14.8955 44.9007 14.8955C46.8408 14.8955 48.4128 16.4387 48.4128 18.3433Z" fill="#EBB105"/>
<path d="M62.2126 18.3433C62.2126 20.2478 60.6407 21.791 58.7006 21.791C56.7605 21.791 55.1885 20.2478 55.1885 18.3433C55.1885 16.4387 56.7605 14.8955 58.7006 14.8955C60.6407 14.8955 62.2126 16.4387 62.2126 18.3433Z" fill="#EBB105"/>
<path d="M76.0124 18.3433C76.0124 20.2478 74.4405 21.791 72.5004 21.791C70.5603 21.791 68.9883 20.2478 68.9883 18.3433C68.9883 16.4387 70.5603 14.8955 72.5004 14.8955C74.4405 14.8955 76.0124 16.4387 76.0124 18.3433Z" fill="#EBB105"/>
<path d="M89.8113 18.3433C89.8113 20.2478 88.2393 21.791 86.2992 21.791C84.3591 21.791 82.7871 20.2478 82.7871 18.3433C82.7871 16.4387 84.3591 14.8955 86.2992 14.8955C88.2393 14.8955 89.8113 16.4387 89.8113 18.3433Z" fill="#EBB105"/>
<path d="M103.611 18.3433C103.611 20.2478 102.039 21.791 100.099 21.791C98.1589 21.791 96.5869 20.2478 96.5869 18.3433C96.5869 16.4387 98.1589 14.8955 100.099 14.8955C102.039 14.8955 103.611 16.4387 103.611 18.3433Z" fill="#EBB105"/>
<path d="M117.411 18.3433C117.411 20.2478 115.839 21.791 113.899 21.791C111.959 21.791 110.387 20.2478 110.387 18.3433C110.387 16.4387 111.959 14.8955 113.899 14.8955C115.839 14.8955 117.411 16.4387 117.411 18.3433Z" fill="#EBB105"/>
<path d="M131.201 18.3433C131.201 20.2478 129.629 21.791 127.689 21.791C125.749 21.791 124.177 20.2478 124.177 18.3433C124.177 16.4387 125.749 14.8955 127.689 14.8955C129.629 14.8955 131.201 16.4387 131.201 18.3433Z" fill="#EBB105"/>
<path d="M145 18.3433C145 20.2478 143.428 21.791 141.488 21.791C139.548 21.791 137.976 20.2478 137.976 18.3433C137.976 16.4387 139.548 14.8955 141.488 14.8955C143.428 14.8955 145 16.4387 145 18.3433Z" fill="#EBB105"/>
</svg>
