<svg width="176" height="48" viewBox="0 0 176 48" fill="none" xmlns="http://www.w3.org/2000/svg">
<g clip-path="url(#clip0_780_14114)">
<path fill-rule="evenodd" clip-rule="evenodd" d="M8.04955 17.156H19.8434C20.0368 17.4926 20.2231 17.9223 20.4165 18.4953C20.6099 19.0255 20.653 19.6487 20.653 20.2718C20.653 21.4253 20.4165 22.2347 19.8863 22.7648C19.3632 23.2949 18.6897 23.5312 17.787 23.5312H8.4294V45.9593C8.04955 46.0525 7.51934 46.1529 6.85294 46.2961C6.2296 46.3893 5.47008 46.4894 4.65332 46.4894C3.12716 46.4894 2.03089 46.2029 1.26422 45.6299C0.547712 45.0569 0.167969 44.0468 0.167969 42.6142V13.7678C0.167969 11.6617 0.50472 9.88516 1.17108 8.40234C1.79443 6.91953 2.69725 5.71623 3.89382 4.76335C5.04017 3.80347 6.42302 3.0872 8.04955 2.65743C9.67607 2.1774 11.3885 1.94116 13.3016 1.94116C19.0767 1.94116 21.9928 3.47406 21.9928 6.53985C21.9928 7.21322 21.8496 7.83651 21.563 8.40953C21.2763 8.93964 20.9395 9.36941 20.5598 9.706C19.7 9.36941 18.79 9.0829 17.7941 8.88937C16.7409 8.65313 15.6946 8.55278 14.5483 8.55278C12.3056 8.55278 10.6791 8.98254 9.633 9.84925C8.57976 10.709 8.05672 12.1487 8.05672 14.1115V17.156H8.04955Z" fill="white"/>
<path fill-rule="evenodd" clip-rule="evenodd" d="M26.197 15.3361C26.5338 15.2429 27.0568 15.1426 27.7232 14.9993C28.3894 14.8561 29.1061 14.806 29.9228 14.806C31.4491 14.806 32.5954 15.0925 33.3119 15.6655C34.0283 16.1956 34.4082 17.1984 34.4082 18.6383V45.9519C34.0283 46.045 33.5484 46.1452 32.882 46.2885C32.2156 46.3816 31.4491 46.482 30.6824 46.482C29.1061 46.482 27.9595 46.1955 27.2431 45.6223C26.5266 45.0493 26.1898 44.0393 26.1898 42.6066V15.3361H26.197ZM25.5234 5.85183C25.5234 4.60544 26.0036 3.50231 26.8634 2.64278C27.7733 1.73298 28.9197 1.30322 30.3025 1.30322C31.6854 1.30322 32.7817 1.73298 33.6917 2.64278C34.5516 3.50231 34.9815 4.60544 34.9815 5.85183C34.9815 7.1483 34.5516 8.24444 33.6917 9.16123C32.7817 10.071 31.6854 10.5008 30.3025 10.5008C28.9197 10.5008 27.7733 10.071 26.8634 9.16123C26.0036 8.24444 25.5234 7.14131 25.5234 5.85183Z" fill="white"/>
<path fill-rule="evenodd" clip-rule="evenodd" d="M65.9138 37.2849C65.9138 40.3007 64.7674 42.7004 62.5247 44.4267C60.2821 46.1531 56.9861 47.0126 52.6442 47.0126C50.8743 47.0126 49.2551 46.8694 47.7718 46.6259C46.3389 46.3393 45.0491 45.9526 44.0031 45.4725C42.9498 44.9424 42.14 44.3694 41.5239 43.6531C40.9506 42.9367 40.6641 42.1201 40.6641 41.2605C40.6641 40.4439 40.8575 39.7276 41.2373 39.1043C41.5739 38.4812 42.0972 38.0012 42.6703 37.5715C43.9099 38.3881 45.2928 39.0543 46.8691 39.6775C48.4453 40.3006 50.3084 40.5872 52.3574 40.5872C54.1702 40.5872 55.5102 40.3007 56.4129 39.7276C57.3229 39.1043 57.7528 38.2877 57.7528 37.2849C57.7528 35.4655 56.4631 34.3121 53.8836 33.7391L50.2081 32.8796C47.0124 32.1631 44.6192 31.06 43.093 29.5702C41.567 28.0874 40.8003 26.1173 40.8003 23.6318C40.8003 20.8022 41.8964 18.5028 44.1893 16.7334C46.432 14.9641 49.5845 14.0974 53.6902 14.0974C55.2164 14.0974 56.6996 14.1906 57.9893 14.434C59.3291 14.6704 60.4683 15.0573 61.4284 15.4871C62.4316 15.9671 63.1983 16.49 63.7213 17.1131C64.2946 17.7364 64.5309 18.5028 64.5309 19.3194C64.5309 20.0859 64.3878 20.7593 64.0079 21.3824C63.6711 21.9554 63.2414 22.4354 62.7684 22.772C62.3887 22.5358 61.9086 22.2421 61.2422 22.0057C60.6189 21.7192 59.9525 21.4756 59.1859 21.2894C58.4192 21.053 57.6095 20.8595 56.7497 20.7162C55.9401 20.573 55.0803 20.48 54.2707 20.48C52.551 20.48 51.2613 20.7665 50.3083 21.2964C49.3554 21.8696 48.8753 22.636 48.8753 23.6461C48.8753 24.3624 49.1117 24.9855 49.685 25.4655C50.2081 25.9454 51.1682 26.325 52.5008 26.6187L55.6964 27.4354C59.2791 28.252 61.9014 29.4483 63.4777 31.0315C65.1042 32.636 65.9138 34.6918 65.9138 37.2849Z" fill="white"/>
<path fill-rule="evenodd" clip-rule="evenodd" d="M79.1918 45.9521C78.8121 46.0452 78.2817 46.1454 77.6655 46.2886C76.9991 46.3818 76.2827 46.4822 75.4229 46.4822C73.9397 46.4822 72.8005 46.1957 72.0338 45.6225C71.3174 45.0494 70.9375 44.0395 70.9375 42.6067V3.55258C71.3174 3.45941 71.7973 3.31615 72.4637 3.21599C73.1301 3.11563 73.8968 3.02246 74.7064 3.02246C76.2326 3.02246 77.379 3.30897 78.0954 3.88218C78.8621 4.45519 79.1918 5.46515 79.1918 6.89789V15.9093C80.1447 15.4293 81.2482 14.9995 82.4877 14.6629C83.7272 14.3261 85.11 14.1328 86.6434 14.1328C90.5555 14.1328 93.7082 15.1858 96.0512 17.1986C98.3942 19.2616 99.5836 22.3276 99.5836 26.4965V45.9521C99.2468 46.0452 98.7238 46.1454 98.0574 46.2886C97.3912 46.3818 96.6746 46.4822 95.8578 46.4822C94.3316 46.4822 93.1852 46.1957 92.4185 45.6225C91.7021 45.0494 91.3222 44.0395 91.3222 42.6067V26.8905C91.3222 24.7344 90.7491 23.1514 89.6026 22.1484C88.5064 21.1885 87.0233 20.6656 85.2105 20.6656C84.0139 20.6656 82.9678 20.8591 81.9646 21.2388C80.9615 21.6255 80.0516 22.0554 79.1989 22.5782V45.9521H79.1918Z" fill="white"/>
<path fill-rule="evenodd" clip-rule="evenodd" d="M113.803 17.1555H125.597C125.833 17.4921 126.027 17.9219 126.17 18.4949C126.363 19.025 126.457 19.6483 126.457 20.2714C126.457 21.4248 126.17 22.2342 125.69 22.7644C125.167 23.2945 124.45 23.5307 123.59 23.5307H114.233V45.9589C113.803 46.0521 113.323 46.1524 112.657 46.2957C111.99 46.3888 111.274 46.489 110.457 46.489C108.931 46.489 107.784 46.2025 107.068 45.6295C106.301 45.0565 105.972 44.0463 105.972 42.6138V20.4793C106.065 17.9362 107.641 17.4133 109.504 17.1697H113.803V17.1555Z" fill="#EBB105"/>
<path fill-rule="evenodd" clip-rule="evenodd" d="M131.948 15.3368C132.328 15.2436 132.808 15.1432 133.474 15C134.141 14.8567 134.907 14.8066 135.674 14.8066C137.251 14.8066 138.397 15.0931 139.113 15.6662C139.83 16.1963 140.167 17.1993 140.167 18.639V45.9525C139.83 46.0457 139.307 46.1461 138.64 46.2893C137.974 46.3823 137.258 46.4826 136.441 46.4826C134.915 46.4826 133.768 46.1961 133.052 45.6231C132.335 45.0499 131.955 44.04 131.955 42.6072V15.3368H131.948Z" fill="#EBB105"/>
<path fill-rule="evenodd" clip-rule="evenodd" d="M167.61 26.1178C167.61 24.2481 167.087 22.8585 166.034 21.9988C164.981 21.1392 163.504 20.6592 161.692 20.6592C160.452 20.6592 159.306 20.8527 158.209 21.1392C157.156 21.4258 156.253 21.8555 155.444 22.3356V45.96C155.064 46.053 154.534 46.1534 153.917 46.2966C153.251 46.3898 152.535 46.4901 151.675 46.4901C150.192 46.4901 149.052 46.2034 148.286 45.6304C147.569 45.0574 147.189 44.0475 147.189 42.6147V21.6765C147.189 20.6235 147.426 19.7568 147.856 19.1335C148.286 18.4601 148.952 17.837 149.862 17.2137C151.152 16.3542 152.821 15.6308 154.878 15.0576C156.977 14.4345 159.27 14.1479 161.799 14.1479C166.242 14.1479 169.724 15.1507 172.16 17.1206C174.596 19.1335 175.836 22.006 175.836 25.8383V45.96C175.499 46.053 174.976 46.1534 174.309 46.2966C173.643 46.3898 172.927 46.4901 172.11 46.4901C170.584 46.4901 169.437 46.2034 168.721 45.6304C168.004 45.0574 167.624 44.0475 167.624 42.6147V26.1178H167.61Z" fill="#EBB105"/>
<path fill-rule="evenodd" clip-rule="evenodd" d="M103.539 17.2992C106.591 12.2705 112.18 12.4567 123.164 11.9338C134.191 11.3607 139.73 7.85801 140.159 0.143066C136.964 3.20886 128.889 3.88223 120.921 4.11866C112.896 4.31917 102.729 4.5556 103.539 17.2992Z" fill="white"/>
</g>
<defs>
<clipPath id="clip0_780_14114">
<rect width="176" height="48" fill="white"/>
</clipPath>
</defs>
</svg>
